<?xml version="1.0" encoding="UTF-8"?>
<svg id="_レイヤー_2" data-name="レイヤー 2" xmlns="http://www.w3.org/2000/svg" viewBox="0 0 1710.73 697.91">
  <defs>
    <style>
      .cls-1 {
        fill: #fff;
        stroke-width: 0px;
      }
    </style>
  </defs>
  <g id="su">
    <g>
      <path class="cls-1" d="m493.09,220.03l-6.35,62.54-55.81,9.05-43.39,7.04-1.56,15.1,43.62-7.18,56.45-9.29-6.35,62.54-52.35,8.63-76.43,12.6-44.5,7.34,7.64-77.83-41.1,6.67,6.35-62.54,41.1-6.67,1.17-13.15-40.64,6.59,6.06-64.79,46.77-.2c10.12-.53,20.14-2.26,29.85-5.15l55.38-16.48c9.31-2.77,18.87-4.63,28.55-5.54l53.46-2.63-6.28,60.11-62.3,10.11-37.35,6.06-1.17,13.15,38.09-6.18,61.1-9.91Z"/>
      <path class="cls-1" d="m528.72,289.56l6.28-63.86,31.98-1.71c15.98-1.52,31.82-4.31,47.37-8.35l56.08-14.56c16.34-4.24,33.07-6.75,49.93-7.49l28.64-.89-6.5,62.19-213.77,34.67Z"/>
      <path class="cls-1" d="m782.52,249.8l139.8-22.91,13.68-128.2,11,1.13c5.96-.09,11.88-1.09,17.53-2.98l17.93-5.98c6.31-2.1,12.93-3.11,19.58-2.96l6.95.79-19.82,188.62-.16.5-212.86,34.53,6.35-62.54Zm1.94-14.22l6.35-62.54,124.22-20.15-6.35,62.54-124.22,20.15Zm7.64-76.41l5.91-63.48,12.09.97c9.89.02,19.73-1.37,29.22-4.15l35.39-10.35c10.16-2.97,20.65-4.65,31.22-5.02l16.07-.45-6.37,62.44-123.53,20.04Z"/>
      <path class="cls-1" d="m1036.87,222.56l109.07-17.69,1.2-11.51-109.76,17.8,5.07-48.66,109.53-17.77,1.04-11.01-109.99,17.84,4.97-49.87,27.84-.29c8.74-.47,17.4-1.97,25.79-4.46l54.62-16.18c9.12-2.7,18.57-4.15,28.08-4.32l29.66-.76h0l-15.76,168.29-.19.27-166.24,26.96,5.07-48.66Z"/>
      <path class="cls-1" d="m1247.84,173.21l139.8-22.91,14.18-129.08,6.86.5c8.77.64,17.56-.69,25.74-3.91l20.58-8.11,20.3-.4-20.8,191.43-.16.5-212.86,34.53,6.35-62.54Zm9.57-90.63l6.35-62.54,19.17-.21c8-.09,15.94-1.32,23.58-3.66l38.53-11.81c7.92-2.43,16.14-3.76,24.43-3.95l17.82-.41-6.35,62.54-123.53,20.04Z"/>
      <path class="cls-1" d="m137.87,697.91l11.7-131.27-67.74,10.99-8.36,83.6L0,673.14l16.87-167.7,8.78.11c7.53.09,15.03-.87,22.29-2.87l8.62-4.29c7.51-3.74,15.83-5.54,24.21-5.22l9.57.36-2.16,21.56,17.19-.24c7.05-.1,14.07-1.08,20.88-2.91l17.81-6.96c7.24-2.83,14.9-4.42,22.67-4.7l16.52-.6,2.31-22.06,3.73.05c1.79.02,3.57-.24,5.28-.79l2.11-1.24c2.15-1.26,4.65-1.8,7.13-1.55l2.18.22-2.31,22.06,4.36-.71,2.31-22.06,3.61.6c1.97.33,3.99.03,5.78-.85l1.81-1.26c2.21-1.54,4.91-2.24,7.59-1.97l1.64.16-2.08,22.02-17.36,193.7-73.48,11.92Z"/>
      <path class="cls-1" d="m382.12,658.47l7.32-74.01-140.3,22.76,6.35-62.54,213.77-34.67-13.67,136.54-73.48,11.92Zm-125.13-130.76l6.35-62.54,37.2-.27c18.22-.13,36.34-2.75,53.86-7.77l31.44-11.83c18.68-7.03,38.28-11.27,58.19-12.6l33.09-2.2-6.35,62.54-213.77,34.67Z"/>
      <path class="cls-1" d="m658.24,463l-140.53,22.79,6.35-62.54,37.33-1.59c15.03-.64,29.96-2.79,44.56-6.41l41.56-15.05c15.57-5.64,31.89-8.9,48.43-9.67l41.9-1.95.07.46-21.36,215.56-73.48,11.92,15.16-153.52Z"/>
      <path class="cls-1" d="m896.37,573.51l-56.95,9.24,10.85-94.37-56.73,22.16,4.84-48.62,34.29-8.27c10.85-2.62,21.32-6.57,31.2-11.76l29.14-19.27c9.93-6.56,20.86-11.47,32.36-14.52l31.87-8.47-5.07,48.66-43.44,16.94-12.36,108.29Z"/>
      <path class="cls-1" d="m1015.86,546.15l4.88-48.39,111.14-18.03,8.46-81.5,12.24.29c4.9.11,9.78-.7,14.38-2.4l8.36-3.57c4.42-1.89,9.14-2.96,13.94-3.18l8.03-.37-13.34,129.89-168.08,27.26Zm16.83-167.93l9.47.31c3.2.1,6.39-.38,9.41-1.42l5.9-2.8c3.64-1.73,7.6-2.72,11.62-2.92l8.14-.4-10.68,107.07-44.55,7.23,10.68-107.07Zm100.11-16.24l-10.68,107.07-44.55,7.23,10.68-107.07,9.85.99c3.2.32,6.42-.23,9.33-1.58l5.19-3.11c4.15-2.49,8.92-3.76,13.77-3.65l6.4.14Z"/>
      <path class="cls-1" d="m1362.08,489.32l11.7-131.27-67.74,10.99-8.36,83.6-73.48,11.92,16.87-167.7,12.68.97c7.39.57,14.81-.62,21.65-3.47l8.93-3.5c7.07-2.77,14.51-4.52,22.07-5.2l8.15-.73-2.16,21.56,22.95.11c13.03.06,25.98-1.89,38.42-5.78l18.62-7.77c11.65-4.87,24.07-7.65,36.69-8.24l23.85-1.11-17.36,193.7-73.48,11.92Z"/>
      <path class="cls-1" d="m1613.45,449.7l-14.33-46.22-50.19,56.69-73.48,11.92,155.46-176.27-140.3,22.76,6.35-62.54,43.33-1.53c15.09-.53,30.07-2.77,44.66-6.67l33.21-12.38c19.12-7.13,39.21-11.29,59.58-12.36l33-1.73-6.35,62.54-48.39,54.74,30.93,99.14-73.48,11.92Z"/>
    </g>
    <g>
      <path class="cls-1" d="m1234.68,647.23h-7.01v-35.99h10.94l6.54,28.3,6.49-28.3h10.82v35.99h-7.01v-24.34c0-.7,0-1.68.02-2.94.02-1.26.02-2.23.02-2.92l-6.81,30.2h-7.3l-6.76-30.2c0,.68,0,1.66.02,2.92.02,1.26.02,2.24.02,2.94v24.34Z"/>
      <path class="cls-1" d="m1285.37,648.23c-5.14,0-9.07-1.4-11.79-4.2-3.65-3.43-5.47-8.38-5.47-14.84s1.82-11.54,5.47-14.84c2.72-2.8,6.65-4.2,11.79-4.2s9.07,1.4,11.79,4.2c3.63,3.3,5.44,8.25,5.44,14.84s-1.82,11.41-5.44,14.84c-2.72,2.8-6.65,4.2-11.79,4.2Zm7.1-9.67c1.74-2.2,2.61-5.32,2.61-9.38s-.88-7.16-2.62-9.36c-1.75-2.21-4.11-3.31-7.09-3.31s-5.36,1.1-7.13,3.3c-1.77,2.2-2.66,5.32-2.66,9.38s.89,7.18,2.66,9.38c1.77,2.2,4.15,3.3,7.13,3.3s5.35-1.1,7.1-3.3Z"/>
      <path class="cls-1" d="m1334.49,611.24v6.37h-10.77v29.61h-7.57v-29.61h-10.82v-6.37h29.15Z"/>
      <path class="cls-1" d="m1338.3,611.24h7.47v35.99h-7.47v-35.99Z"/>
      <path class="cls-1" d="m1368.69,648.23c-5.14,0-9.07-1.4-11.79-4.2-3.65-3.43-5.47-8.38-5.47-14.84s1.82-11.54,5.47-14.84c2.72-2.8,6.65-4.2,11.79-4.2s9.07,1.4,11.79,4.2c3.63,3.3,5.44,8.25,5.44,14.84s-1.82,11.41-5.44,14.84c-2.72,2.8-6.65,4.2-11.79,4.2Zm7.1-9.67c1.74-2.2,2.61-5.32,2.61-9.38s-.88-7.16-2.62-9.36c-1.75-2.21-4.11-3.31-7.09-3.31s-5.36,1.1-7.13,3.3c-1.77,2.2-2.66,5.32-2.66,9.38s.89,7.18,2.66,9.38c1.77,2.2,4.15,3.3,7.13,3.3s5.35-1.1,7.1-3.3Z"/>
      <path class="cls-1" d="m1420.77,647.23h-7.52l-14.7-25.56v25.56h-7.01v-35.99h7.89l14.33,25.12v-25.12h7.01v35.99Z"/>
      <path class="cls-1" d="m1463.73,646.35c-1.99,1.22-4.43,1.83-7.32,1.83-4.77,0-8.68-1.65-11.72-4.96-3.17-3.32-4.76-7.86-4.76-13.62s1.6-10.5,4.81-14.01c3.21-3.52,7.45-5.27,12.72-5.27,4.57,0,8.25,1.16,11.02,3.48,2.78,2.32,4.37,5.21,4.77,8.68h-7.4c-.57-2.46-1.96-4.17-4.17-5.15-1.24-.54-2.61-.81-4.13-.81-2.9,0-5.28,1.09-7.14,3.28-1.86,2.19-2.79,5.48-2.79,9.88s1.01,7.56,3.03,9.4c2.02,1.84,4.31,2.76,6.88,2.76s4.59-.73,6.2-2.18c1.61-1.46,2.6-3.37,2.98-5.73h-8.33v-6.01h14.99v19.31h-4.98l-.76-4.49c-1.45,1.71-2.75,2.91-3.91,3.61Z"/>
      <path class="cls-1" d="m1495.84,633.12h-7.76v14.11h-7.35v-35.99h17.65c2.52.05,4.46.36,5.82.93,1.36.57,2.51,1.41,3.46,2.51.78.91,1.4,1.92,1.86,3.03.46,1.11.68,2.37.68,3.78,0,1.71-.43,3.39-1.29,5.04-.86,1.65-2.29,2.82-4.27,3.5,1.66.67,2.84,1.62,3.53,2.84.69,1.23,1.04,3.11,1.04,5.63v2.42c0,1.64.06,2.76.2,3.34.2.93.65,1.61,1.37,2.05v.9h-8.28c-.23-.8-.39-1.44-.49-1.93-.2-1.01-.3-2.04-.32-3.1l-.05-3.34c-.03-2.29-.45-3.82-1.26-4.59-.81-.76-2.32-1.15-4.53-1.15Zm4.57-6.54c1.5-.68,2.25-2.03,2.25-4.05,0-2.18-.72-3.65-2.17-4.39-.81-.42-2.04-.63-3.66-.63h-8.74v9.67h8.52c1.69,0,2.96-.2,3.81-.59Z"/>
      <path class="cls-1" d="m1537.73,639.83h-13.26l-2.49,7.4h-7.86l12.84-35.99h8.5l12.74,35.99h-8.15l-2.32-7.4Zm-2.1-6.2l-4.49-14.16-4.64,14.16h9.13Z"/>
      <path class="cls-1" d="m1568.06,634.29h-7.64v12.94h-7.47v-35.99h15.67c3.61,0,6.49.93,8.64,2.78s3.22,4.73,3.22,8.62c0,4.25-1.07,7.25-3.22,9.01s-5.22,2.64-9.2,2.64Zm3.52-7.5c.98-.86,1.46-2.23,1.46-4.1s-.49-3.21-1.48-4c-.99-.8-2.37-1.2-4.14-1.2h-7.01v10.6h7.01c1.77,0,3.16-.43,4.15-1.29Z"/>
      <path class="cls-1" d="m1607.58,647.23v-16.06h-14.06v16.06h-7.45v-35.99h7.45v13.72h14.06v-13.72h7.47v35.99h-7.47Z"/>
      <path class="cls-1" d="m1621.65,611.24h7.47v35.99h-7.47v-35.99Z"/>
      <path class="cls-1" d="m1661.51,644.54c-2.69,2.46-6.12,3.69-10.3,3.69-5.18,0-9.25-1.66-12.21-4.98-2.96-3.34-4.44-7.91-4.44-13.72,0-6.28,1.68-11.12,5.05-14.53,2.93-2.96,6.66-4.44,11.18-4.44,6.05,0,10.48,1.99,13.28,5.96,1.55,2.23,2.38,4.47,2.49,6.71h-7.52c-.49-1.72-1.12-3.03-1.88-3.91-1.37-1.56-3.39-2.34-6.08-2.34s-4.89,1.1-6.47,3.31c-1.58,2.21-2.37,5.33-2.37,9.36s.83,7.06,2.5,9.07c1.67,2.01,3.79,3.01,6.36,3.01s4.65-.86,6.03-2.59c.76-.93,1.4-2.32,1.9-4.17h7.45c-.65,3.92-2.31,7.11-4.98,9.57Z"/>
      <path class="cls-1" d="m1685.29,642.03c1.77,0,3.21-.2,4.32-.59,2.1-.75,3.15-2.14,3.15-4.17,0-1.19-.52-2.11-1.56-2.76-1.04-.63-2.68-1.2-4.91-1.68l-3.81-.85c-3.74-.85-6.33-1.77-7.76-2.76-2.43-1.66-3.64-4.26-3.64-7.79,0-3.22,1.17-5.9,3.52-8.03,2.34-2.13,5.79-3.2,10.33-3.2,3.79,0,7.03,1,9.71,3.01,2.68,2.01,4.08,4.93,4.21,8.75h-7.23c-.13-2.16-1.07-3.7-2.83-4.61-1.17-.6-2.63-.9-4.37-.9-1.94,0-3.48.39-4.64,1.17-1.16.78-1.73,1.87-1.73,3.27,0,1.29.57,2.25,1.71,2.88.73.42,2.29.92,4.69,1.49l6.2,1.49c2.72.65,4.77,1.52,6.15,2.61,2.15,1.69,3.22,4.14,3.22,7.35s-1.26,6.02-3.77,8.19c-2.52,2.17-6.07,3.26-10.66,3.26s-8.37-1.07-11.06-3.21c-2.69-2.14-4.03-5.08-4.03-8.83h7.18c.23,1.64.67,2.87,1.34,3.69,1.22,1.48,3.31,2.22,6.27,2.22Z"/>
    </g>
  </g>
</svg>