<?xml version="1.0" encoding="UTF-8"?>
<svg id="_レイヤー_2" data-name="レイヤー 2" xmlns="http://www.w3.org/2000/svg" viewBox="0 0 1761 489.41">
  <defs>
    <style>
      .cls-1 {
        fill: #fff;
        stroke-width: 0px;
      }
    </style>
  </defs>
  <g id="su">
    <g>
      <path class="cls-1" d="m559.27,74.02l-16.28,60.71h-100.49l-3.95,14.66,101.42-.23-16.28,60.71-175.63.46,20.01-75.6h-41.64l16.28-60.71h41.64l3.26-12.79h-41.17L362.71.52h216.57l-16.28,60.71h-100.96l-3.26,12.79h100.49Z"/>
      <path class="cls-1" d="m583.31,148.36l16.28-60.71h216.57l-16.28,60.71h-216.57Z"/>
      <path class="cls-1" d="m840.2,149.75l141.66-.23,33.96-123.06h74.44l-50.48,183.54-.23.46h-215.64l16.28-60.71Zm4.19-13.72l16.28-60.71h125.85l-16.28,60.71h-125.85Zm19.77-74.21l16.28-60.71h125.15l-16.28,60.71h-125.15Z"/>
      <path class="cls-1" d="m1095.64,163.58h110.49l3.02-11.17h-111.19l12.79-47.22h110.96l2.79-10.7h-111.42l12.79-47.22h168.42l-.23.23-42.57,163.07-.23.23h-168.42l12.79-47.22Z"/>
      <path class="cls-1" d="m1311.79,148.64l141.66-.23,34.66-125.15h74.44l-51.18,185.63-.23.46h-215.64l16.28-60.71Zm23.96-87.93l16.28-60.71h125.15l-16.28,60.71h-125.15Z"/>
      <path class="cls-1" d="m132.13,488.87l32.57-127.71h-68.62l-21.63,81.18H0l43.5-162.83h74.44l-5.58,20.94h96.3l5.82-21.4h20.7l-5.82,21.4h4.42l5.82-21.4h20.7l-5.58,21.4-48.15,188.42h-74.44Z"/>
      <path class="cls-1" d="m379.54,489.04l19.08-71.88h-142.13l16.28-60.71h216.57l-35.36,132.59h-74.44Zm-102.58-149.11l16.28-60.71h216.57l-16.28,60.71h-216.57Z"/>
      <path class="cls-1" d="m683.4,340.3h-142.36l16.28-60.71h216.57v.46l-55.6,209.36h-74.44l39.55-149.11Z"/>
      <path class="cls-1" d="m900.76,487.5h-57.69l25.82-91.42-59.55,12.79,12.56-47.22,166.79-36.06-12.79,47.22-45.59,9.77-29.54,104.91Z"/>
      <path class="cls-1" d="m1023.09,479.64l12.56-46.99h112.59l21.4-79.09h57.69l-33.96,126.08h-170.28Zm43.5-163.07h45.13l-27.68,103.98h-45.13l27.68-103.98Zm101.42,0l-27.68,103.98h-45.13l27.68-103.98h45.13Z"/>
      <path class="cls-1" d="m1373.94,478.97l32.57-127.71h-68.62l-21.63,81.18h-74.44l43.5-162.83h74.44l-5.58,20.94h142.36l-48.15,188.42h-74.44Z"/>
      <path class="cls-1" d="m1628.41,480.1l-6.75-47.92-58.62,47.92h-74.44l181.68-149.11h-142.13l16.28-60.71h216.57l-16.28,60.71-56.53,46.29,14.66,102.82h-74.44Z"/>
    </g>
  </g>
</svg>