<?xml version="1.0" encoding="UTF-8"?>
<svg id="_レイヤー_2" data-name="レイヤー 2" xmlns="http://www.w3.org/2000/svg" viewBox="0 0 1184.11 257">
  <defs>
    <style>
      .cls-1 {
        fill: #32ff00;
      }

      .cls-1, .cls-2, .cls-3 {
        stroke-width: 0px;
      }

      .cls-2 {
        fill: #ff0068;
      }

      .cls-3 {
        fill: #00cfff;
      }
    </style>
  </defs>
  <g id="_" data-name="!">
    <g>
      <g>
        <path class="cls-3" d="m31.11,91v46.19l-26.4,26.4v40.81s.4,5.59,4.4,3.59,18-16,18-16c0,0,4-4.47,4,2.77v49.03s-1,7.2,6,7.2h31.79s6.21,1,6.21-6v-97.62l26.19-26.19h44.81v85.14h-30s-6-.34-6,6.66v32s-.1,6.1,6.45,6.05,69.42,0,69.42,0c0,0,8.13-.05,8.13-8.05V85.4s0-8.4-7-8.4h-89.01s-4.99,0-10.99,3-12,13-12,13V21s1-9-6-9h-30.23s-6.77-1-6.77,5v24H7.11S.11,40,.11,47v35s-1.5,8.5,6.5,8.5,24.5.5,24.5.5Z"/>
        <path class="cls-1" d="m247.11,116v27.46s0,8.54,7,8.54h92.36v53.26h-20.7s-7.66-.26-7.66,7.74v29s-.62,9.1,5.19,8.55,66.74,0,66.74,0c0,0,7.07-.55,7.07-6.55V116s-1-7-8-7h-134s-8,0-8,7Z"/>
        <path class="cls-2" d="m550.11,14l-96,113s-3,2.16,0,6.08,87,113.92,87,113.92c0,0,3,3,5,3h49.09s6.91,1,1.91-5-85-114-85-114l95-116s1-5-3-5h-48.27s-3.73,0-5.73,4Z"/>
        <path class="cls-1" d="m690.94,89.97v46.19l-26.4,26.4v40.81s.4,5.59,4.4,3.59,18-16,18-16c0,0,4-4.47,4,2.77v49.03s-1,7.2,6,7.2h31.79s6.21,1,6.21-6v-97.62l26.19-26.19h44.81v85.14h-30s-6-.34-6,6.66v32s-.1,6.1,6.45,6.05,69.42,0,69.42,0c0,0,8.13-.05,8.13-8.05V84.37s0-8.4-7-8.4h-89.01s-4.99,0-10.99,3-12,13-12,13V19.97s1-9-6-9h-30.23s-6.77-1-6.77,5v24h-25s-7-1-7,6v35s-1.5,8.5,6.5,8.5,24.5.5,24.5.5Z"/>
        <path class="cls-3" d="m998.69,14l-96,113s-3,2.16,0,6.08,87,113.92,87,113.92c0,0,2.42,3,5,3h49.09s6.91,1,1.91-5-85-114-85-114l95-116s1-5-3-5h-48.27s-3.73,0-5.73,4Z"/>
        <path class="cls-2" d="m1136.11,7v163.02s-2,8.98,5,8.98h36.78s6.22,0,6.22-4V7s0-7-6-7h-33.14s-8.86,1-8.86,7Z"/>
      </g>
      <path class="cls-2" d="m1135.85,210.85v39.17s.26,6.98,5.26,6.98h36.78s6.22-.28,6.22-5.64v-40.51s-1-6.85-6-6.85h-34.72s-7.81-1.3-7.55,6.85Z"/>
    </g>
  </g>
</svg>